<svg width="27" height="28" viewBox="0 0 27 28" fill="none" xmlns="http://www.w3.org/2000/svg">
<path d="M21.5657 15.7079L13.4838 24.3052L5.40187 15.7079M5.40187 15.7079C4.86879 15.1508 4.4489 14.4811 4.16862 13.7411C3.88835 13.0011 3.75377 12.2067 3.77335 11.4081C3.79294 10.6095 3.96627 9.82383 4.28243 9.10069C4.59858 8.37754 5.05072 7.73254 5.61037 7.20629C6.17001 6.68005 6.82504 6.28397 7.53421 6.04298C8.24337 5.802 8.99131 5.72134 9.73093 5.80609C10.4705 5.89083 11.1858 6.13914 11.8317 6.53537C12.4776 6.93161 13.0401 7.4672 13.4838 8.1084C13.9294 7.47185 14.4925 6.94095 15.138 6.54891C15.7834 6.15688 16.4972 5.91216 17.2348 5.83007C17.9723 5.74797 18.7177 5.83027 19.4243 6.07182C20.1308 6.31336 20.7834 6.70895 21.341 7.23382C21.8987 7.75869 22.3495 8.40155 22.6653 9.12216C22.981 9.84278 23.1548 10.6256 23.1759 11.4217C23.197 12.2178 23.0649 13.01 22.7878 13.7487C22.5107 14.4875 22.0947 15.1568 21.5657 15.7149" stroke="white" stroke-width="1.8149" stroke-linecap="round" stroke-linejoin="round"/>
</svg>
