<svg width="29" height="28" viewBox="0 0 29 28" fill="none" xmlns="http://www.w3.org/2000/svg">
<path d="M6.04167 13.8411H3.625L14.5 3.46045L25.375 13.8411H22.9583" stroke="white" stroke-width="1.8149" stroke-linecap="round" stroke-linejoin="round"/>
<path d="M6.04102 13.8403V21.9142C6.04102 22.526 6.29563 23.1128 6.74884 23.5454C7.20205 23.978 7.81674 24.221 8.45768 24.221H20.541C21.182 24.221 21.7966 23.978 22.2499 23.5454C22.7031 23.1128 22.9577 22.526 22.9577 21.9142V13.8403" stroke="white" stroke-width="1.8149" stroke-linecap="round" stroke-linejoin="round"/>
<path d="M10.875 24.2219V17.3014C10.875 16.6896 11.1296 16.1029 11.5828 15.6703C12.036 15.2377 12.6507 14.9946 13.2917 14.9946H15.7083C16.3493 14.9946 16.964 15.2377 17.4172 15.6703C17.8704 16.1029 18.125 16.6896 18.125 17.3014V24.2219" stroke="white" stroke-width="1.8149" stroke-linecap="round" stroke-linejoin="round"/>
</svg>
