<svg width="50" height="50" viewBox="0 0 50 50" fill="none" xmlns="http://www.w3.org/2000/svg">
<path d="M32.3808 50H17.9614C17.2028 50 16.5879 49.385 16.5879 48.6266V4.29463C16.588 1.92646 18.5146 0 20.8827 0H29.4596C31.8276 0 33.7542 1.92646 33.7542 4.29463V48.6267C33.7542 49.3851 33.1394 50 32.3808 50ZM19.335 47.253H31.0071V4.29463C31.0071 3.44131 30.3128 2.74697 29.4595 2.74697H20.8826C20.0293 2.74697 19.335 3.44131 19.335 4.29463V47.253Z" fill="white"/>
<path d="M28.0717 17.7881H22.2715V35.0432H28.0717V17.7881Z" fill="#CEE8FA"/>
<path d="M28.0718 36.4174H22.271C21.5124 36.4174 20.8975 35.8023 20.8975 35.0438V17.7885C20.8975 17.0301 21.5124 16.415 22.271 16.415H28.0718C28.8304 16.415 29.4453 17.0301 29.4453 17.7885V35.044C29.4452 35.8024 28.8304 36.4174 28.0718 36.4174ZM23.6443 33.6704H26.6981V19.162H23.6443V33.6704Z" fill="white"/>
<path d="M24.6322 8.06592H17.9613C17.2027 8.06592 16.5879 7.45088 16.5879 6.69238C16.5879 5.93389 17.2028 5.31885 17.9613 5.31885H24.6322C25.3908 5.31885 26.0057 5.93389 26.0057 6.69238C26.0057 7.45088 25.3907 8.06592 24.6322 8.06592Z" fill="white"/>
<path d="M31.8422 43.3794H25.1713C24.4127 43.3794 23.7979 42.7644 23.7979 42.0059C23.7979 41.2474 24.4128 40.6323 25.1713 40.6323H31.8422C32.6008 40.6323 33.2156 41.2474 33.2156 42.0059C33.2156 42.7644 32.6007 43.3794 31.8422 43.3794Z" fill="white"/>
<path d="M17.6196 49.9998H5.94775C5.18916 49.9998 4.57422 49.3848 4.57422 48.6264V13.635C4.57422 11.2669 6.50078 9.34033 8.86885 9.34033H13.1875C13.9461 9.34033 14.561 9.95537 14.561 10.7139C14.561 11.4724 13.9461 12.0874 13.1875 12.0874H8.86875C8.01543 12.0874 7.32109 12.7817 7.32109 13.6351V47.2529H17.6195C18.3781 47.2529 18.9931 47.868 18.9931 48.6265C18.993 49.3848 18.3782 49.9998 17.6196 49.9998Z" fill="white"/>
<path d="M17.6191 41.897H5.94727V48.6271H17.6191V41.897Z" fill="#CEE8FA"/>
<path d="M17.6196 50H5.94775C5.18916 50 4.57422 49.385 4.57422 48.6266V41.8965C4.57422 41.1381 5.18916 40.5229 5.94775 40.5229H17.6196C18.3782 40.5229 18.9931 41.138 18.9931 41.8965V48.6266C18.9932 49.3851 18.3782 50 17.6196 50ZM7.32129 47.253H16.2462V43.2699H7.32129V47.253Z" fill="white"/>
<path d="M13.191 20.5355H10.3754C9.6168 20.5355 9.00195 19.9205 9.00195 19.162C9.00195 18.4036 9.61689 17.7886 10.3754 17.7886H13.191C13.9496 17.7886 14.5646 18.4036 14.5646 19.162C14.5646 19.9205 13.9496 20.5355 13.191 20.5355Z" fill="white"/>
<path d="M13.191 28.2963H10.3754C9.6168 28.2963 9.00195 27.6813 9.00195 26.9229C9.00195 26.1645 9.61689 25.5493 10.3754 25.5493H13.191C13.9496 25.5493 14.5646 26.1644 14.5646 26.9229C14.5646 27.6813 13.9496 28.2963 13.191 28.2963Z" fill="white"/>
<path d="M44.0531 49.9998H32.3812C31.6227 49.9998 31.0078 49.3848 31.0078 48.6264V13.635C31.0078 11.2669 32.9344 9.34033 35.3024 9.34033H39.6211C40.3797 9.34033 40.9945 9.95537 40.9945 10.7139C40.9945 11.4724 40.3796 12.0874 39.6211 12.0874H35.3023C34.449 12.0874 33.7547 12.7817 33.7547 13.6351V47.2529H44.0531C44.8117 47.2529 45.4266 47.868 45.4266 48.6265C45.4266 49.3848 44.8117 49.9998 44.0531 49.9998Z" fill="white"/>
<path d="M44.0518 41.897H32.3799V48.6271H44.0518V41.897Z" fill="#CEE8FA"/>
<path d="M44.0531 50H32.3812C31.6227 50 31.0078 49.385 31.0078 48.6266V41.8965C31.0078 41.1381 31.6228 40.5229 32.3812 40.5229H44.0531C44.8117 40.5229 45.4266 41.138 45.4266 41.8965V48.6266C45.4266 49.3851 44.8117 50 44.0531 50ZM33.7547 47.253H42.6796V43.2699H33.7547V47.253Z" fill="white"/>
<path d="M39.6246 20.536H36.809C36.0504 20.536 35.4355 19.921 35.4355 19.1625C35.4355 18.4041 36.0505 17.7891 36.809 17.7891H39.6246C40.3832 17.7891 40.9981 18.4041 40.9981 19.1625C40.998 19.921 40.3832 20.536 39.6246 20.536Z" fill="white"/>
<path d="M39.6246 28.2968H36.809C36.0504 28.2968 35.4355 27.6817 35.4355 26.9233C35.4355 26.1649 36.0505 25.5498 36.809 25.5498H39.6246C40.3832 25.5498 40.9981 26.1648 40.9981 26.9233C40.9981 27.6818 40.3832 28.2968 39.6246 28.2968Z" fill="white"/>
<path d="M44.0532 43.2701C43.2946 43.2701 42.6797 42.6551 42.6797 41.8967V19.1625C42.6797 18.4041 43.2946 17.7891 44.0532 17.7891C44.8118 17.7891 45.4267 18.4041 45.4267 19.1625V41.8966C45.4267 42.6552 44.8118 43.2701 44.0532 43.2701Z" fill="white"/>
</svg>
