<svg width="23" height="25" viewBox="0 0 23 25" fill="none" xmlns="http://www.w3.org/2000/svg">
<path d="M17.2069 5.6155C17.2069 6.72614 16.862 7.81184 16.2158 8.7353C15.5696 9.65876 14.6512 10.3785 13.5766 10.8035C12.5021 11.2286 11.3196 11.3398 10.1789 11.1231C9.03817 10.9064 7.99033 10.3716 7.1679 9.58625C6.34547 8.80091 5.78539 7.80033 5.55849 6.71103C5.33158 5.62173 5.44804 4.49264 5.89313 3.46654C6.33823 2.44044 7.09197 1.56342 8.05904 0.946382C9.02611 0.329343 10.1631 0 11.3262 0C12.8858 0 14.3816 0.591631 15.4844 1.64474C16.5873 2.69785 17.2069 4.12617 17.2069 5.6155ZM17.6577 13.8422C17.3879 13.7151 17.0911 13.649 16.7903 13.649C16.4895 13.649 16.1927 13.7151 15.9229 13.8422C14.5097 14.5672 12.9304 14.9466 11.3262 14.9466C9.72193 14.9466 8.14266 14.5672 6.72944 13.8422C6.45966 13.7151 6.16287 13.649 5.86204 13.649C5.56121 13.649 5.26441 13.7151 4.99464 13.8422C3.6625 14.4524 2.53801 15.4096 1.75075 16.6035C0.963487 17.7973 0.545489 19.1793 0.544922 20.5902V22.462C0.544922 22.9584 0.751445 23.4345 1.11906 23.7856C1.48667 24.1366 1.98526 24.3338 2.50515 24.3338H20.1472C20.6671 24.3338 21.1657 24.1366 21.5333 23.7856C21.9009 23.4345 22.1074 22.9584 22.1074 22.462V20.5902C22.1069 19.1793 21.6889 17.7973 20.9016 16.6035C20.1143 15.4096 18.9898 14.4524 17.6577 13.8422Z" fill="white"/>
</svg>
